<svg xmlns="http://www.w3.org/2000/svg" xmlns:xlink="http://www.w3.org/1999/xlink" width="162.97" height="149.762" viewBox="0 0 162.97 149.762"><defs><style>.a{fill:#2e2d2c;}.b{mix-blend-mode:multiply;isolation:isolate;}.c{fill:url(#a);}</style><linearGradient id="a" y1="0.5" x2="1" y2="0.5" gradientUnits="objectBoundingBox"><stop offset="0.112" stop-color="#c5e980"/><stop offset="0.206" stop-color="#bee684"/><stop offset="0.34" stop-color="#abe190"/><stop offset="0.498" stop-color="#8cd7a4"/><stop offset="0.674" stop-color="#62c9bf"/><stop offset="0.862" stop-color="#2cb8e2"/><stop offset="1" stop-color="#00abff"/></linearGradient></defs><g transform="translate(-435.03 -271.812)"><g transform="translate(435.03 271.812)"><g transform="translate(0 0)"><path class="a" d="M498.591,388.631c-35.046,0-63.561-26.2-63.561-58.409s28.515-58.409,63.561-58.409,63.562,26.2,63.562,58.409S533.638,388.631,498.591,388.631Zm0-110.828c-31.453,0-57.042,23.515-57.042,52.419s25.589,52.419,57.042,52.419,57.042-23.515,57.042-52.419S530.044,277.8,498.591,277.8Z" transform="translate(-435.03 -271.812)"/></g></g><g transform="translate(542.927 370.963)"><g transform="translate(0)"><path class="a" d="M764.844,588.857a15.868,15.868,0,0,1-10.75-4.086L725.92,558.88a2.826,2.826,0,0,1,0-4.236l16.89-15.521a3.465,3.465,0,0,1,4.609,0l28.174,25.891a13.2,13.2,0,0,1,0,19.757A15.868,15.868,0,0,1,764.844,588.857Zm-32.01-32.095L758.7,580.535a9.244,9.244,0,0,0,12.281,0,7.537,7.537,0,0,0,0-11.285l-25.869-23.773Z" transform="translate(-724.965 -538.246)"/></g></g><g transform="translate(542.331 361.945)"><path class="a" d="M740.274,532.547a3.4,3.4,0,0,1-2.3-.878l-13.65-12.543a2.826,2.826,0,0,1,0-4.235,3.465,3.465,0,0,1,4.609,0l13.649,12.543a2.826,2.826,0,0,1,0,4.236A3.4,3.4,0,0,1,740.274,532.547Z" transform="translate(-723.365 -514.013)"/></g><g transform="translate(533.113 370.413)"><g transform="translate(0 0)"><path class="a" d="M715.5,555.3a3.4,3.4,0,0,1-2.3-.878l-13.649-12.546a2.826,2.826,0,0,1,0-4.236,3.465,3.465,0,0,1,4.609,0l13.649,12.546a2.826,2.826,0,0,1,0,4.236A3.4,3.4,0,0,1,715.5,555.3Z" transform="translate(-698.594 -536.768)"/></g></g><g class="b" transform="translate(456.523 313.747)"><g transform="translate(38.809)"><rect class="c" width="6.519" height="22.091"/></g><g transform="translate(25.873)"><rect class="c" width="6.519" height="22.091"/></g><g transform="translate(64.682)"><rect class="c" width="6.519" height="22.091"/></g><g transform="translate(12.936)"><rect class="c" width="6.519" height="22.091"/></g><g transform="translate(51.745)"><rect class="c" width="6.519" height="22.091"/></g><g transform="translate(0)"><rect class="c" width="6.519" height="32.949"/></g><g transform="translate(77.618)"><rect class="c" width="6.519" height="32.949"/></g><g transform="translate(64.682 26.584)"><rect class="c" width="6.519" height="6.365"/></g><g transform="translate(51.745 26.584)"><rect class="c" width="6.519" height="6.365"/></g><g transform="translate(38.809 26.584)"><rect class="c" width="6.519" height="6.365"/></g><g transform="translate(25.873 26.584)"><rect class="c" width="6.519" height="6.365"/></g><g transform="translate(12.936 26.584)"><rect class="c" width="6.519" height="6.365"/></g></g></g></svg>